<svg width="20" height="26" viewBox="0 0 20 26" fill="none" xmlns="http://www.w3.org/2000/svg">
<mask id="mask0_1252_12107" style="mask-type:alpha" maskUnits="userSpaceOnUse" x="0" y="16" width="20" height="10">
<path fill-rule="evenodd" clip-rule="evenodd" d="M0 16.1201H19.7999V25.3376H0V16.1201Z" fill="white"/>
</mask>
<g mask="url(#mask0_1252_12107)">
<path fill-rule="evenodd" clip-rule="evenodd" d="M9.90125 17.9951C4.575 17.9951 1.875 18.9101 1.875 20.7164C1.875 22.5389 4.575 23.4626 9.90125 23.4626C15.2263 23.4626 17.925 22.5476 17.925 20.7414C17.925 18.9189 15.2263 17.9951 9.90125 17.9951ZM9.90125 25.3376C7.4525 25.3376 0 25.3376 0 20.7164C0 16.5964 5.65125 16.1201 9.90125 16.1201C12.35 16.1201 19.8 16.1201 19.8 20.7414C19.8 24.8614 14.15 25.3376 9.90125 25.3376Z" fill="black"/>
</g>
<mask id="mask1_1252_12107" style="mask-type:alpha" maskUnits="userSpaceOnUse" x="3" y="0" width="14" height="14">
<path fill-rule="evenodd" clip-rule="evenodd" d="M3.2627 0.5H16.5377V13.7733H3.2627V0.5Z" fill="white"/>
</mask>
<g mask="url(#mask1_1252_12107)">
<path fill-rule="evenodd" clip-rule="evenodd" d="M9.90148 2.28451C7.22523 2.28451 5.04773 4.46076 5.04773 7.13701C5.03898 9.80451 7.20023 11.9795 9.86523 11.9895L9.90148 12.882V11.9895C12.5765 11.9895 14.7527 9.81201 14.7527 7.13701C14.7527 4.46076 12.5765 2.28451 9.90148 2.28451ZM9.90148 13.7733H9.86149C6.20899 13.762 3.25023 10.7833 3.26273 7.13326C3.26273 3.47701 6.24023 0.499512 9.90148 0.499512C13.5615 0.499512 16.5377 3.47701 16.5377 7.13701C16.5377 10.797 13.5615 13.7733 9.90148 13.7733Z" fill="black"/>
</g>
</svg>
