<svg width="30" height="30" viewBox="0 0 30 30" fill="none" xmlns="http://www.w3.org/2000/svg">
<path fill-rule="evenodd" clip-rule="evenodd" d="M7.8125 4.375C4.375 4.375 4.375 4.635 4.375 7.8125V7.84375C4.375 9.2275 4.375 10.2275 4.71375 10.65C5.045 11.06 6.02875 11.25 7.8125 11.25C9.59625 11.25 10.58 11.0588 10.9113 10.6488C11.25 10.2275 11.25 9.2275 11.25 7.8425C11.25 4.635 11.25 4.375 7.8125 4.375M7.8125 13.125C5.705 13.125 4.12375 12.9038 3.255 11.825C2.5 10.8888 2.5 9.61125 2.5 7.84375L3.4375 7.8125H2.5C2.5 4.225 2.72625 2.5 7.8125 2.5C12.8987 2.5 13.125 4.225 13.125 7.8125C13.125 9.61 13.125 10.8888 12.37 11.825C11.5012 12.9038 9.92 13.125 7.8125 13.125" fill="black"/>
<path fill-rule="evenodd" clip-rule="evenodd" d="M21.5625 4.375C18.125 4.375 18.125 4.635 18.125 7.8125V7.84375C18.125 9.2275 18.125 10.2275 18.4637 10.65C18.795 11.06 19.7787 11.25 21.5625 11.25C23.3463 11.25 24.33 11.0588 24.6613 10.6488C25 10.2275 25 9.2275 25 7.8425C25 4.635 25 4.375 21.5625 4.375M21.5625 13.125C19.455 13.125 17.8737 12.9038 17.005 11.825C16.25 10.8888 16.25 9.61125 16.25 7.84375L17.1875 7.8125H16.25C16.25 4.225 16.4763 2.5 21.5625 2.5C26.6487 2.5 26.875 4.225 26.875 7.8125C26.875 9.61 26.875 10.8888 26.12 11.825C25.2512 12.9038 23.67 13.125 21.5625 13.125" fill="black"/>
<path fill-rule="evenodd" clip-rule="evenodd" d="M7.8125 18.125C4.375 18.125 4.375 18.385 4.375 21.5625V21.5938C4.375 22.9775 4.375 23.9775 4.71375 24.4C5.045 24.81 6.02875 25 7.8125 25C9.59625 25 10.58 24.8088 10.9113 24.3988C11.25 23.9775 11.25 22.9775 11.25 21.5925C11.25 18.385 11.25 18.125 7.8125 18.125M7.8125 26.875C5.705 26.875 4.12375 26.6538 3.255 25.575C2.5 24.6388 2.5 23.3613 2.5 21.5938L3.4375 21.5625H2.5C2.5 17.975 2.72625 16.25 7.8125 16.25C12.8987 16.25 13.125 17.975 13.125 21.5625C13.125 23.36 13.125 24.6388 12.37 25.575C11.5012 26.6538 9.92 26.875 7.8125 26.875" fill="black"/>
<path fill-rule="evenodd" clip-rule="evenodd" d="M21.5625 18.125C18.125 18.125 18.125 18.385 18.125 21.5625V21.5938C18.125 22.9775 18.125 23.9775 18.4637 24.4C18.795 24.81 19.7787 25 21.5625 25C23.3463 25 24.33 24.8088 24.6613 24.3988C25 23.9775 25 22.9775 25 21.5925C25 18.385 25 18.125 21.5625 18.125M21.5625 26.875C19.455 26.875 17.8737 26.6538 17.005 25.575C16.25 24.6388 16.25 23.3613 16.25 21.5938L17.1875 21.5625H16.25C16.25 17.975 16.4763 16.25 21.5625 16.25C26.6487 16.25 26.875 17.975 26.875 21.5625C26.875 23.36 26.875 24.6388 26.12 25.575C25.2512 26.6538 23.67 26.875 21.5625 26.875" fill="black"/>
</svg>
