<svg width="18" height="18" viewBox="0 0 18 18" fill="none" xmlns="http://www.w3.org/2000/svg">
<g id="Iconly/Light-Outline/Delete">
<g id="Delete">
<path id="Fill 1" fill-rule="evenodd" clip-rule="evenodd" d="M9.18501 16.4999C8.16876 16.4999 7.17801 16.4886 6.19776 16.4684C4.94376 16.4436 4.07601 15.6306 3.93426 14.3466C3.69801 12.2166 3.29376 7.19612 3.29001 7.14587C3.26451 6.83612 3.49551 6.56462 3.80526 6.53987C4.11051 6.53162 4.38651 6.74612 4.41126 7.05512C4.41501 7.10612 4.81851 12.1094 5.05251 14.2229C5.13276 14.9526 5.52651 15.3291 6.22101 15.3434C8.09601 15.3831 10.0093 15.3854 12.0718 15.3479C12.8098 15.3336 13.2088 14.9646 13.2913 14.2176C13.5238 12.1221 13.9288 7.10612 13.9333 7.05512C13.958 6.74612 14.2318 6.53012 14.5385 6.53987C14.8483 6.56537 15.0793 6.83612 15.0545 7.14587C15.05 7.19687 14.6435 12.2301 14.4095 14.3414C14.264 15.6516 13.3985 16.4489 12.092 16.4729C11.0923 16.4901 10.1278 16.4999 9.18501 16.4999Z" fill="black"/>
<path id="Fill 3" fill-rule="evenodd" clip-rule="evenodd" d="M15.531 5.2417H2.8125C2.502 5.2417 2.25 4.9897 2.25 4.6792C2.25 4.3687 2.502 4.1167 2.8125 4.1167H15.531C15.8415 4.1167 16.0935 4.3687 16.0935 4.6792C16.0935 4.9897 15.8415 5.2417 15.531 5.2417Z" fill="black"/>
<path id="Fill 5" fill-rule="evenodd" clip-rule="evenodd" d="M13.0799 5.24175C12.2264 5.24175 11.4854 4.6335 11.3174 3.7965L11.1352 2.8845C11.0969 2.74575 10.9387 2.625 10.7587 2.625H7.58395C7.40395 2.625 7.2457 2.74575 7.19995 2.919L7.0252 3.7965C6.85795 4.6335 6.1162 5.24175 5.2627 5.24175C4.9522 5.24175 4.7002 4.98975 4.7002 4.67925C4.7002 4.36875 4.9522 4.11675 5.2627 4.11675C5.5822 4.11675 5.8597 3.88875 5.9227 3.57525L6.10495 2.66325C6.2902 1.96425 6.89545 1.5 7.58395 1.5H10.7587C11.4472 1.5 12.0524 1.96425 12.2302 2.6295L12.4207 3.57525C12.4829 3.88875 12.7604 4.11675 13.0799 4.11675C13.3904 4.11675 13.6424 4.36875 13.6424 4.67925C13.6424 4.98975 13.3904 5.24175 13.0799 5.24175Z" fill="black"/>
</g>
</g>
</svg>
