<svg width="30" height="30" viewBox="0 0 30 30" fill="none" xmlns="http://www.w3.org/2000/svg">
<mask id="mask0_1252_12078" style="mask-type:alpha" maskUnits="userSpaceOnUse" x="2" y="1" width="27" height="28">
<path fill-rule="evenodd" clip-rule="evenodd" d="M2.5 1.25049H28.1248V28.1317H2.5V1.25049Z" fill="white"/>
</mask>
<g mask="url(#mask0_1252_12078)">
<path fill-rule="evenodd" clip-rule="evenodd" d="M17.1462 19.1145C18.6513 19.1145 19.8763 20.3308 19.8763 21.8258V25.6708C19.8763 25.992 20.1338 26.2495 20.4638 26.257H22.8463C24.7238 26.257 26.25 24.7495 26.25 22.8971V11.9921C26.2413 11.3546 25.9375 10.7546 25.4163 10.3558L17.175 3.7833C16.0688 2.90705 14.5213 2.90705 13.4113 3.7858L5.22625 10.3533C4.685 10.7646 4.38125 11.3646 4.375 12.0133V22.8971C4.375 24.7495 5.90125 26.257 7.77875 26.257H10.1838C10.5225 26.257 10.7975 25.9883 10.7975 25.6583C10.7975 25.5858 10.8063 25.5133 10.8212 25.4445V21.8258C10.8212 20.3396 12.0388 19.1245 13.5325 19.1145H17.1462ZM22.8463 28.132H20.4412C19.0637 28.0996 18.0013 27.0183 18.0013 25.6708V21.8258C18.0013 21.3645 17.6175 20.9895 17.1462 20.9895H13.5388C13.0775 20.992 12.6962 21.3683 12.6962 21.8258V25.6583C12.6962 25.7521 12.6838 25.8421 12.6575 25.927C12.5225 27.1645 11.465 28.132 10.1837 28.132H7.77875C4.8675 28.132 2.5 25.7833 2.5 22.897V12.0045C2.5125 10.7621 3.085 9.62455 4.07375 8.8758L12.2425 2.31955C14.0413 0.894551 16.5475 0.894551 18.3425 2.31705L26.57 8.87955C27.5363 9.6158 28.1087 10.7508 28.125 11.9783V22.897C28.125 25.7833 25.7575 28.132 22.8463 28.132Z" fill="black"/>
</g>
</svg>
