<svg width="30" height="30" viewBox="0 0 30 30" fill="none" xmlns="http://www.w3.org/2000/svg">
<mask id="mask0_1335_17048" style="mask-type:alpha" maskUnits="userSpaceOnUse" x="3" y="1" width="24" height="22">
<path fill-rule="evenodd" clip-rule="evenodd" d="M3.75 1.25H26.8711V22.935H3.75V1.25Z" fill="white"/>
</mask>
<g mask="url(#mask0_1335_17048)">
<path fill-rule="evenodd" clip-rule="evenodd" d="M15.3088 3.125C10.94 3.125 7.89502 6.5475 7.89502 9.61875C7.89502 12.2175 7.17377 13.4187 6.53627 14.4788C6.02502 15.33 5.62127 16.0025 5.62127 17.4637C5.83002 19.8212 7.38627 21.06 15.3088 21.06C23.1875 21.06 24.7925 19.7663 25 17.3825C24.9963 16.0025 24.5925 15.33 24.0813 14.4788C23.4438 13.4187 22.7225 12.2175 22.7225 9.61875C22.7225 6.5475 19.6775 3.125 15.3088 3.125ZM15.3088 22.935C9.46377 22.935 4.18127 22.5225 3.75002 17.5438C3.74627 15.4837 4.37502 14.4362 4.93002 13.5138C5.49127 12.5787 6.02002 11.6975 6.02002 9.61875C6.02002 5.5775 9.75252 1.25 15.3088 1.25C20.865 1.25 24.5975 5.5775 24.5975 9.61875C24.5975 11.6975 25.1263 12.5787 25.6875 13.5138C26.2425 14.4362 26.8713 15.4837 26.8713 17.4637C26.435 22.5225 21.1538 22.935 15.3088 22.935Z" fill="black"/>
</g>
<path fill-rule="evenodd" clip-rule="evenodd" d="M15.2473 28.1253H15.2448C13.8435 28.124 12.5173 27.5065 11.511 26.3853C11.1648 26.0015 11.196 25.4078 11.581 25.0628C11.966 24.7153 12.5585 24.7465 12.9048 25.1328C13.5523 25.854 14.3835 26.2503 15.246 26.2503H15.2473C16.1135 26.2503 16.9485 25.854 17.5973 25.1315C17.9448 24.7478 18.5373 24.7165 18.921 25.0628C19.306 25.409 19.3373 26.0028 18.991 26.3865C17.981 27.5078 16.6523 28.1253 15.2473 28.1253Z" fill="black"/>
</svg>
