<svg width="30" height="30" viewBox="0 0 30 30" fill="none" xmlns="http://www.w3.org/2000/svg">
<mask id="mask0_1252_12147" style="mask-type:alpha" maskUnits="userSpaceOnUse" x="2" y="2" width="25" height="27">
<path fill-rule="evenodd" clip-rule="evenodd" d="M2.5 2.50049H26.6061V28.4017H2.5V2.50049Z" fill="white"/>
</mask>
<g mask="url(#mask0_1252_12147)">
<path fill-rule="evenodd" clip-rule="evenodd" d="M9.0029 21.8005C9.28915 21.8005 9.5754 21.8367 9.8554 21.9117C10.7004 22.1392 11.4342 22.7042 11.8692 23.463C12.1517 23.9392 12.3079 24.4955 12.3129 25.063C12.3129 25.8755 12.9654 26.5267 13.7679 26.5267H15.3342C16.1329 26.5267 16.7854 25.8792 16.7892 25.0805C16.7842 24.198 17.1292 23.3592 17.7604 22.728C18.3829 22.1055 19.2529 21.7317 20.1229 21.7567C20.6929 21.7705 21.2417 21.9242 21.7254 22.1992C22.4217 22.598 23.3104 22.3605 23.7129 21.673L24.5429 20.2892C24.7279 19.9705 24.7817 19.5705 24.6829 19.2017C24.5854 18.833 24.3404 18.513 24.0104 18.3242C23.2379 17.8792 22.6867 17.1617 22.4579 16.3017C22.2317 15.458 22.3554 14.5367 22.7967 13.778C23.0842 13.278 23.5054 12.8567 24.0104 12.5667C24.6879 12.1705 24.9254 11.2842 24.5317 10.5942C24.5154 10.5667 24.5004 10.538 24.4879 10.508L23.7554 9.23799C23.3567 8.54424 22.4692 8.30549 21.7729 8.70174C21.0204 9.14674 20.1254 9.27424 19.2654 9.04799C18.4067 8.82549 17.6867 8.28174 17.2379 7.51424C16.9504 7.03424 16.7942 6.47549 16.7892 5.90674C16.8004 5.47924 16.6504 5.09549 16.3779 4.81424C16.1067 4.53424 15.7254 4.37549 15.3342 4.37549H13.7679C13.3804 4.37549 13.0179 4.52674 12.7442 4.79924C12.4717 5.07299 12.3229 5.43674 12.3254 5.82424C12.2992 7.65174 10.8054 9.12299 8.99665 9.12299C8.41665 9.11674 7.8579 8.96049 7.3729 8.67049C6.69165 8.28299 5.80165 8.52174 5.4029 9.21549L4.55665 10.6067C4.16915 11.2792 4.40665 12.168 5.09665 12.5692C6.1204 13.1617 6.75915 14.2667 6.75915 15.4517C6.75915 16.6367 6.1204 17.7405 5.09415 18.3342C4.4079 18.7317 4.1704 19.6155 4.5679 20.303L5.35665 21.663C5.55165 22.0142 5.8704 22.268 6.23915 22.3717C6.60665 22.4742 7.01165 22.4305 7.34915 22.243C7.8454 21.9517 8.4229 21.8005 9.0029 21.8005ZM15.3342 28.4017H13.7679C11.9317 28.4017 10.4379 26.9092 10.4379 25.073C10.4354 24.8467 10.3704 24.6117 10.2492 24.408C10.0529 24.0655 9.7354 23.8205 9.36915 23.723C9.0054 23.6255 8.60665 23.6792 8.27915 23.8692C7.49415 24.3067 6.5704 24.413 5.7254 24.1755C4.88165 23.9367 4.1529 23.3567 3.7254 22.588L2.94415 21.2417C2.0304 19.6567 2.57415 17.6255 4.15665 16.7105C4.6054 16.4517 4.88415 15.9692 4.88415 15.4517C4.88415 14.9342 4.6054 14.4505 4.15665 14.1917C2.5729 13.2717 2.0304 11.2355 2.9429 9.65049L3.7904 8.25924C4.69165 6.69174 6.72915 6.13924 8.3179 7.05174C8.53415 7.18049 8.76915 7.24549 9.0079 7.24799C9.78665 7.24799 10.4379 6.60549 10.4504 5.81549C10.4454 4.94424 10.7892 4.10799 11.4154 3.47674C12.0442 2.84674 12.8792 2.50049 13.7679 2.50049H15.3342C16.2292 2.50049 17.0992 2.86799 17.7229 3.50674C18.3454 4.14924 18.6892 5.03049 18.6629 5.92424C18.6654 6.12549 18.7317 6.35799 18.8517 6.56174C19.0504 6.89924 19.3642 7.13674 19.7367 7.23424C20.1092 7.32674 20.4992 7.27674 20.8304 7.08049C22.4304 6.16674 24.4667 6.71424 25.3804 8.30174L26.1592 9.65049C26.1792 9.68674 26.1967 9.72174 26.2117 9.75799C27.0392 11.3217 26.4867 13.2905 24.9492 14.1892C24.7254 14.318 24.5442 14.498 24.4192 14.7155C24.2254 15.0517 24.1717 15.4517 24.2692 15.8192C24.3692 16.1942 24.6079 16.5055 24.9442 16.698C25.7029 17.1342 26.2692 17.8692 26.4954 18.718C26.7217 19.5655 26.5979 20.4855 26.1567 21.2442L25.3267 22.6267C24.4129 24.1967 22.3767 24.7405 20.7929 23.8255C20.5817 23.7042 20.3379 23.638 20.0954 23.6317H20.0879C19.7267 23.6317 19.3554 23.7855 19.0854 24.0542C18.8117 24.328 18.6617 24.693 18.6642 25.0805C18.6554 26.9167 17.1617 28.4017 15.3342 28.4017Z" fill="black"/>
</g>
<path fill-rule="evenodd" clip-rule="evenodd" d="M14.5567 13.0933C13.2567 13.0933 12.1992 14.152 12.1992 15.452C12.1992 16.752 13.2567 17.8083 14.5567 17.8083C15.8567 17.8083 16.9142 16.752 16.9142 15.452C16.9142 14.152 15.8567 13.0933 14.5567 13.0933ZM14.5567 19.6833C12.223 19.6833 10.3242 17.7858 10.3242 15.452C10.3242 13.1183 12.223 11.2183 14.5567 11.2183C16.8905 11.2183 18.7892 13.1183 18.7892 15.452C18.7892 17.7858 16.8905 19.6833 14.5567 19.6833Z" fill="black"/>
</svg>
