<svg width="30" height="30" viewBox="0 0 30 30" fill="none" xmlns="http://www.w3.org/2000/svg">
<path fill-rule="evenodd" clip-rule="evenodd" d="M20.7212 27.9609H9.69125C5.39 27.9609 2.5 24.9421 2.5 20.4496V10.0571C2.5 5.56465 5.39 2.5459 9.69125 2.5459H14.365C14.8825 2.5459 15.3025 2.9659 15.3025 3.4834C15.3025 4.0009 14.8825 4.4209 14.365 4.4209H9.69125C6.46125 4.4209 4.375 6.6334 4.375 10.0571V20.4496C4.375 23.8734 6.46125 26.0859 9.69125 26.0859H20.7212C23.9512 26.0859 26.0387 23.8734 26.0387 20.4496V15.4146C26.0387 14.8971 26.4587 14.4771 26.9762 14.4771C27.4937 14.4771 27.9137 14.8971 27.9137 15.4146V20.4496C27.9137 24.9421 25.0225 27.9609 20.7212 27.9609Z" fill="black"/>
<path fill-rule="evenodd" clip-rule="evenodd" d="M11.0846 19.2855H14.8058C15.2808 19.2855 15.7258 19.1017 16.0621 18.7655L25.4483 9.37924C25.8333 8.99424 26.0458 8.48174 26.0458 7.93674C26.0458 7.39049 25.8333 6.87674 25.4483 6.49174L23.9271 4.97049C23.1308 4.17674 21.8358 4.17674 21.0383 4.97049L11.6971 14.3117C11.3733 14.6355 11.1896 15.0655 11.1783 15.5217L11.0846 19.2855ZM14.8058 21.1605H10.1233C9.87083 21.1605 9.62833 21.058 9.45208 20.8767C9.27583 20.6967 9.17958 20.453 9.18583 20.1992L9.30333 15.4755C9.32708 14.5355 9.70583 13.6517 10.3708 12.9855H10.3721L19.7133 3.64424C21.2408 2.11924 23.7246 2.11924 25.2521 3.64424L26.7733 5.16549C27.5146 5.90549 27.9221 6.88924 27.9208 7.93674C27.9208 8.98424 27.5133 9.96674 26.7733 10.7055L17.3871 20.0917C16.6983 20.7805 15.7808 21.1605 14.8058 21.1605Z" fill="black"/>
<path fill-rule="evenodd" clip-rule="evenodd" d="M24.6632 12.3959C24.4232 12.3959 24.1832 12.3047 24.0007 12.1209L18.2932 6.41344C17.927 6.04719 17.927 5.45344 18.2932 5.08719C18.6595 4.72094 19.252 4.72094 19.6182 5.08719L25.3257 10.7959C25.692 11.1622 25.692 11.7547 25.3257 12.1209C25.1432 12.3047 24.9032 12.3959 24.6632 12.3959Z" fill="black"/>
</svg>
