<svg width="30" height="30" viewBox="0 0 30 30" fill="none" xmlns="http://www.w3.org/2000/svg">
<path fill-rule="evenodd" clip-rule="evenodd" d="M25.8327 12.3804H3.55273C3.03523 12.3804 2.61523 11.9604 2.61523 11.4429C2.61523 10.9254 3.03523 10.5054 3.55273 10.5054H25.8327C26.3502 10.5054 26.7702 10.9254 26.7702 11.4429C26.7702 11.9604 26.3502 12.3804 25.8327 12.3804Z" fill="black"/>
<path fill-rule="evenodd" clip-rule="evenodd" d="M20.2511 17.2622C19.7336 17.2622 19.3086 16.8422 19.3086 16.3247C19.3086 15.8072 19.7223 15.3872 20.2398 15.3872H20.2511C20.7686 15.3872 21.1886 15.8072 21.1886 16.3247C21.1886 16.8422 20.7686 17.2622 20.2511 17.2622Z" fill="black"/>
<path fill-rule="evenodd" clip-rule="evenodd" d="M14.7042 17.2622C14.1867 17.2622 13.7617 16.8422 13.7617 16.3247C13.7617 15.8072 14.1755 15.3872 14.693 15.3872H14.7042C15.2217 15.3872 15.6417 15.8072 15.6417 16.3247C15.6417 16.8422 15.2217 17.2622 14.7042 17.2622Z" fill="black"/>
<path fill-rule="evenodd" clip-rule="evenodd" d="M9.1459 17.2622C8.6284 17.2622 8.20215 16.8422 8.20215 16.3247C8.20215 15.8072 8.61715 15.3872 9.13465 15.3872H9.1459C9.6634 15.3872 10.0834 15.8072 10.0834 16.3247C10.0834 16.8422 9.6634 17.2622 9.1459 17.2622Z" fill="black"/>
<path fill-rule="evenodd" clip-rule="evenodd" d="M20.2511 22.1206C19.7336 22.1206 19.3086 21.7006 19.3086 21.1831C19.3086 20.6656 19.7223 20.2456 20.2398 20.2456H20.2511C20.7686 20.2456 21.1886 20.6656 21.1886 21.1831C21.1886 21.7006 20.7686 22.1206 20.2511 22.1206Z" fill="black"/>
<path fill-rule="evenodd" clip-rule="evenodd" d="M14.7042 22.1206C14.1867 22.1206 13.7617 21.7006 13.7617 21.1831C13.7617 20.6656 14.1755 20.2456 14.693 20.2456H14.7042C15.2217 20.2456 15.6417 20.6656 15.6417 21.1831C15.6417 21.7006 15.2217 22.1206 14.7042 22.1206Z" fill="black"/>
<path fill-rule="evenodd" clip-rule="evenodd" d="M9.1459 22.1206C8.6284 22.1206 8.20215 21.7006 8.20215 21.1831C8.20215 20.6656 8.61715 20.2456 9.13465 20.2456H9.1459C9.6634 20.2456 10.0834 20.6656 10.0834 21.1831C10.0834 21.7006 9.6634 22.1206 9.1459 22.1206Z" fill="black"/>
<path fill-rule="evenodd" clip-rule="evenodd" d="M19.7422 7.23875C19.2247 7.23875 18.8047 6.81875 18.8047 6.30125V2.1875C18.8047 1.67 19.2247 1.25 19.7422 1.25C20.2597 1.25 20.6797 1.67 20.6797 2.1875V6.30125C20.6797 6.81875 20.2597 7.23875 19.7422 7.23875Z" fill="black"/>
<path fill-rule="evenodd" clip-rule="evenodd" d="M9.64453 7.23875C9.12703 7.23875 8.70703 6.81875 8.70703 6.30125V2.1875C8.70703 1.67 9.12703 1.25 9.64453 1.25C10.162 1.25 10.582 1.67 10.582 2.1875V6.30125C10.582 6.81875 10.162 7.23875 9.64453 7.23875Z" fill="black"/>
<mask id="mask0_1252_12087" style="mask-type:alpha" maskUnits="userSpaceOnUse" x="2" y="3" width="25" height="26">
<path fill-rule="evenodd" clip-rule="evenodd" d="M2.5 3.22363H26.875V28.1248H2.5V3.22363Z" fill="white"/>
</mask>
<g mask="url(#mask0_1252_12087)">
<path fill-rule="evenodd" clip-rule="evenodd" d="M9.40125 5.09863C6.16 5.09863 4.375 6.82738 4.375 9.96613V21.2774C4.375 24.4849 6.16 26.2499 9.40125 26.2499H19.9738C23.215 26.2499 25 24.5174 25 21.3724V9.96613C25.005 8.42238 24.59 7.22238 23.7662 6.39738C22.9187 5.54738 21.6125 5.09863 19.985 5.09863H9.40125ZM19.9738 28.1249H9.40125C5.145 28.1249 2.5 25.5011 2.5 21.2774V9.96613C2.5 5.80613 5.145 3.22363 9.40125 3.22363H19.985C22.1213 3.22363 23.8875 3.86363 25.0938 5.07238C26.265 6.24863 26.8813 7.93988 26.875 9.96863V21.3724C26.875 25.5374 24.23 28.1249 19.9738 28.1249Z" fill="black"/>
</g>
</svg>
